# xmcd
#
# Track frame offsets:
#	150
#	17858
#	33937
#	50178
#	63633
#	79077
#	96416
#	113477
#	129679
#	150760
#	172608
#	188451
#	205732
#	219871
#	239840
#	258362
#
# Disc length: 3707 seconds
#
# Revision: 0
# Processed by: cddbd v1.5.1PL0 Copyright (c) Steve Scherf et al.
# Submitted via: audiograbber 1.80
#
DISCID=cf0e7910
DTITLE=Bruno e Marrone - Ao Vivo
DYEAR=1900
DGENRE=
TTITLE0=Inevitavel
TTITLE1=Doce Desejo
TTITLE2=Deixa
TTITLE3=Transito Parado
TTITLE4=O Amor Esta Aqui
TTITLE5=Apaziguar-Credo em Cruz Ave Maria-Pra Que Eu Vou
TTITLE6=Meu Disfarce
TTITLE7=Te Amar Foi Ilusao
TTITLE8=Sera
TTITLE9=Se Tiver Coragem Joga Fora
TTITLE10=Ligacao Urbana
TTITLE11=Sonhos Perdidos
TTITLE12=Grito de Alerta
TTITLE13=Se nao Tiver Ido
TTITLE14=Menina Querida
TTITLE15=Vai dar Namoro
EXTD=
EXTT0=
EXTT1=
EXTT2=
EXTT3=
EXTT4=
EXTT5=
EXTT6=
EXTT7=
EXTT8=
EXTT9=
EXTT10=
EXTT11=
EXTT12=
EXTT13=
EXTT14=
EXTT15=
PLAYORDER=
